<mxfile host="Electron" modified="2024-04-17T09:45:45.059Z" agent="Mozilla/5.0 (Windows NT 10.0; Win64; x64) AppleWebKit/537.36 (KHTML, like Gecko) draw.io/24.0.4 Chrome/120.0.6099.109 Electron/28.1.0 Safari/537.36" etag="AL1Lo9_j-lhgGW8taqEb" version="24.0.4" type="device">
  <diagram id="23iRSUPoRavnBvh4doch" name="Page-1">
    <mxGraphModel dx="1434" dy="836" grid="1" gridSize="10" guides="1" tooltips="1" connect="1" arrows="1" fold="1" page="1" pageScale="1" pageWidth="827" pageHeight="1169" math="0" shadow="0">
      <root>
        <mxCell id="0" />
        <mxCell id="1" parent="0" />
        <mxCell id="woyx0_lKekWq3J5cRrP3-27" value="" style="edgeStyle=orthogonalEdgeStyle;rounded=0;orthogonalLoop=1;jettySize=auto;html=1;" edge="1" parent="1" source="woyx0_lKekWq3J5cRrP3-1" target="woyx0_lKekWq3J5cRrP3-3">
          <mxGeometry relative="1" as="geometry" />
        </mxCell>
        <mxCell id="woyx0_lKekWq3J5cRrP3-1" value="&lt;h2&gt;Begin&lt;/h2&gt;" style="rounded=1;whiteSpace=wrap;html=1;fillColor=#f5f5f5;strokeColor=#666666;fontColor=#333333;arcSize=50;" vertex="1" parent="1">
          <mxGeometry x="354" y="120" width="120" height="40" as="geometry" />
        </mxCell>
        <mxCell id="woyx0_lKekWq3J5cRrP3-2" value="&lt;h1&gt;Bubble Sort&lt;/h1&gt;" style="text;html=1;align=center;verticalAlign=middle;resizable=0;points=[];autosize=1;strokeColor=none;fillColor=none;" vertex="1" parent="1">
          <mxGeometry x="334" y="10" width="160" height="70" as="geometry" />
        </mxCell>
        <mxCell id="woyx0_lKekWq3J5cRrP3-5" value="" style="edgeStyle=orthogonalEdgeStyle;rounded=0;orthogonalLoop=1;jettySize=auto;html=1;" edge="1" parent="1" source="woyx0_lKekWq3J5cRrP3-3" target="woyx0_lKekWq3J5cRrP3-4">
          <mxGeometry relative="1" as="geometry" />
        </mxCell>
        <mxCell id="woyx0_lKekWq3J5cRrP3-3" value="init sorted = false" style="rounded=1;whiteSpace=wrap;html=1;fillColor=#f5f5f5;fontColor=#333333;strokeColor=#666666;" vertex="1" parent="1">
          <mxGeometry x="354" y="200" width="120" height="40" as="geometry" />
        </mxCell>
        <mxCell id="woyx0_lKekWq3J5cRrP3-7" value="" style="edgeStyle=orthogonalEdgeStyle;rounded=0;orthogonalLoop=1;jettySize=auto;html=1;entryX=0.5;entryY=0;entryDx=0;entryDy=0;" edge="1" parent="1" source="woyx0_lKekWq3J5cRrP3-4" target="woyx0_lKekWq3J5cRrP3-35">
          <mxGeometry relative="1" as="geometry">
            <mxPoint x="420" y="350" as="targetPoint" />
          </mxGeometry>
        </mxCell>
        <mxCell id="woyx0_lKekWq3J5cRrP3-4" value="sorted = false" style="shape=trapezoid;perimeter=trapezoidPerimeter;whiteSpace=wrap;html=1;fixedSize=1;fillColor=#f5f5f5;strokeColor=#666666;fontColor=#333333;rounded=1;" vertex="1" parent="1">
          <mxGeometry x="339" y="280" width="150" height="40" as="geometry" />
        </mxCell>
        <mxCell id="woyx0_lKekWq3J5cRrP3-29" value="" style="edgeStyle=orthogonalEdgeStyle;rounded=0;orthogonalLoop=1;jettySize=auto;html=1;" edge="1" parent="1" source="woyx0_lKekWq3J5cRrP3-6" target="woyx0_lKekWq3J5cRrP3-28">
          <mxGeometry relative="1" as="geometry" />
        </mxCell>
        <mxCell id="woyx0_lKekWq3J5cRrP3-6" value="sorted = true" style="shape=trapezoid;perimeter=trapezoidPerimeter;whiteSpace=wrap;html=1;fixedSize=1;fillColor=#f5f5f5;strokeColor=#666666;fontColor=#333333;rounded=1;flipV=1;" vertex="1" parent="1">
          <mxGeometry x="354" y="780" width="120" height="40" as="geometry" />
        </mxCell>
        <mxCell id="woyx0_lKekWq3J5cRrP3-13" value="" style="edgeStyle=orthogonalEdgeStyle;rounded=0;orthogonalLoop=1;jettySize=auto;html=1;" edge="1" parent="1" source="woyx0_lKekWq3J5cRrP3-11" target="woyx0_lKekWq3J5cRrP3-12">
          <mxGeometry relative="1" as="geometry" />
        </mxCell>
        <mxCell id="woyx0_lKekWq3J5cRrP3-11" value="i = 1; i &amp;lt; array lenght; ++ i" style="shape=hexagon;perimeter=hexagonPerimeter2;whiteSpace=wrap;html=1;fixedSize=1;fillColor=#f5f5f5;fontColor=#333333;strokeColor=#666666;" vertex="1" parent="1">
          <mxGeometry x="331" y="430" width="166" height="30" as="geometry" />
        </mxCell>
        <mxCell id="woyx0_lKekWq3J5cRrP3-12" value="" style="shape=trapezoid;perimeter=trapezoidPerimeter;whiteSpace=wrap;html=1;fixedSize=1;fillColor=#f5f5f5;strokeColor=#666666;fontColor=#333333;" vertex="1" parent="1">
          <mxGeometry x="354" y="500" width="120" height="35" as="geometry" />
        </mxCell>
        <mxCell id="woyx0_lKekWq3J5cRrP3-15" value="" style="shape=trapezoid;perimeter=trapezoidPerimeter;whiteSpace=wrap;html=1;fixedSize=1;fillColor=#f5f5f5;strokeColor=#666666;fontColor=#333333;flipV=1;" vertex="1" parent="1">
          <mxGeometry x="354" y="700" width="120" height="35" as="geometry" />
        </mxCell>
        <mxCell id="woyx0_lKekWq3J5cRrP3-17" value="arr[i - 1] &amp;gt; arr[i]" style="rhombus;whiteSpace=wrap;html=1;fillColor=#f5f5f5;strokeColor=#666666;fontColor=#333333;" vertex="1" parent="1">
          <mxGeometry x="374" y="580" width="80" height="80" as="geometry" />
        </mxCell>
        <mxCell id="woyx0_lKekWq3J5cRrP3-19" value="" style="edgeStyle=orthogonalEdgeStyle;rounded=0;orthogonalLoop=1;jettySize=auto;html=1;exitX=0.5;exitY=1;exitDx=0;exitDy=0;entryX=0.5;entryY=0;entryDx=0;entryDy=0;" edge="1" parent="1" source="woyx0_lKekWq3J5cRrP3-12" target="woyx0_lKekWq3J5cRrP3-17">
          <mxGeometry relative="1" as="geometry">
            <mxPoint x="400" y="550" as="sourcePoint" />
            <mxPoint x="413.58" y="575" as="targetPoint" />
          </mxGeometry>
        </mxCell>
        <mxCell id="woyx0_lKekWq3J5cRrP3-34" value="" style="edgeStyle=orthogonalEdgeStyle;rounded=0;orthogonalLoop=1;jettySize=auto;html=1;" edge="1" parent="1" source="woyx0_lKekWq3J5cRrP3-20" target="woyx0_lKekWq3J5cRrP3-32">
          <mxGeometry relative="1" as="geometry" />
        </mxCell>
        <mxCell id="woyx0_lKekWq3J5cRrP3-20" value="swap arr[i - 1] and arr[i]" style="rounded=1;whiteSpace=wrap;html=1;fillColor=#f5f5f5;fontColor=#333333;strokeColor=#666666;" vertex="1" parent="1">
          <mxGeometry x="180" y="605" width="151" height="30" as="geometry" />
        </mxCell>
        <mxCell id="woyx0_lKekWq3J5cRrP3-21" value="" style="endArrow=classic;html=1;rounded=0;entryX=1;entryY=0.5;entryDx=0;entryDy=0;exitX=0;exitY=0.5;exitDx=0;exitDy=0;" edge="1" parent="1" source="woyx0_lKekWq3J5cRrP3-17" target="woyx0_lKekWq3J5cRrP3-20">
          <mxGeometry width="50" height="50" relative="1" as="geometry">
            <mxPoint x="360" y="640" as="sourcePoint" />
            <mxPoint x="410" y="590" as="targetPoint" />
          </mxGeometry>
        </mxCell>
        <mxCell id="woyx0_lKekWq3J5cRrP3-23" value="" style="endArrow=classic;html=1;rounded=0;exitX=0.5;exitY=1;exitDx=0;exitDy=0;entryX=0.5;entryY=0;entryDx=0;entryDy=0;" edge="1" parent="1" source="woyx0_lKekWq3J5cRrP3-17" target="woyx0_lKekWq3J5cRrP3-15">
          <mxGeometry width="50" height="50" relative="1" as="geometry">
            <mxPoint x="360" y="690" as="sourcePoint" />
            <mxPoint x="410" y="640" as="targetPoint" />
          </mxGeometry>
        </mxCell>
        <mxCell id="woyx0_lKekWq3J5cRrP3-24" value="true" style="text;html=1;align=center;verticalAlign=middle;resizable=0;points=[];autosize=1;strokeColor=none;fillColor=none;" vertex="1" parent="1">
          <mxGeometry x="339" y="598" width="40" height="30" as="geometry" />
        </mxCell>
        <mxCell id="woyx0_lKekWq3J5cRrP3-25" value="false" style="text;html=1;align=center;verticalAlign=middle;resizable=0;points=[];autosize=1;strokeColor=none;fillColor=none;" vertex="1" parent="1">
          <mxGeometry x="404" y="660" width="50" height="30" as="geometry" />
        </mxCell>
        <mxCell id="woyx0_lKekWq3J5cRrP3-26" value="" style="endArrow=classic;html=1;rounded=0;exitX=0.5;exitY=1;exitDx=0;exitDy=0;" edge="1" parent="1" source="woyx0_lKekWq3J5cRrP3-15" target="woyx0_lKekWq3J5cRrP3-6">
          <mxGeometry width="50" height="50" relative="1" as="geometry">
            <mxPoint x="360" y="690" as="sourcePoint" />
            <mxPoint x="410" y="640" as="targetPoint" />
          </mxGeometry>
        </mxCell>
        <mxCell id="woyx0_lKekWq3J5cRrP3-28" value="&lt;h2&gt;End&lt;/h2&gt;" style="rounded=1;whiteSpace=wrap;html=1;fillColor=#f5f5f5;strokeColor=#666666;fontColor=#333333;arcSize=50;" vertex="1" parent="1">
          <mxGeometry x="354" y="870" width="120" height="40" as="geometry" />
        </mxCell>
        <mxCell id="woyx0_lKekWq3J5cRrP3-32" value="sorted = false" style="rounded=1;whiteSpace=wrap;html=1;fillColor=#f5f5f5;fontColor=#333333;strokeColor=#666666;" vertex="1" parent="1">
          <mxGeometry x="180" y="655" width="151" height="30" as="geometry" />
        </mxCell>
        <mxCell id="woyx0_lKekWq3J5cRrP3-36" value="" style="edgeStyle=orthogonalEdgeStyle;rounded=0;orthogonalLoop=1;jettySize=auto;html=1;" edge="1" parent="1" source="woyx0_lKekWq3J5cRrP3-35" target="woyx0_lKekWq3J5cRrP3-11">
          <mxGeometry relative="1" as="geometry" />
        </mxCell>
        <mxCell id="woyx0_lKekWq3J5cRrP3-35" value="sorted = true" style="rounded=1;whiteSpace=wrap;html=1;fillColor=#f5f5f5;fontColor=#333333;strokeColor=#666666;" vertex="1" parent="1">
          <mxGeometry x="359" y="360" width="110" height="30" as="geometry" />
        </mxCell>
        <mxCell id="woyx0_lKekWq3J5cRrP3-38" value="" style="endArrow=classic;html=1;rounded=0;exitX=1;exitY=0.5;exitDx=0;exitDy=0;" edge="1" parent="1" source="woyx0_lKekWq3J5cRrP3-32">
          <mxGeometry width="50" height="50" relative="1" as="geometry">
            <mxPoint x="360" y="690" as="sourcePoint" />
            <mxPoint x="410" y="670" as="targetPoint" />
          </mxGeometry>
        </mxCell>
      </root>
    </mxGraphModel>
  </diagram>
</mxfile>
